<svg width="32" height="32" viewBox="0 0 32 32" fill="none" xmlns="http://www.w3.org/2000/svg">
<rect width="32" height="32" rx="16" fill="#525252"/>
<path d="M14.7098 10.1117C14.5631 9.96531 14.3818 9.85824 14.1827 9.80037C13.9836 9.74251 13.7731 9.73572 13.5707 9.78064C13.3683 9.82556 13.1805 9.92073 13.0246 10.0574C12.8687 10.194 12.7497 10.3677 12.6786 10.5625L8.57782 21.8422C8.51045 22.0282 8.48869 22.2276 8.51436 22.4238C8.54004 22.62 8.61239 22.8071 8.72536 22.9695C8.83832 23.1319 8.9886 23.2649 9.16358 23.3572C9.33855 23.4495 9.53312 23.4985 9.73094 23.5C9.8766 23.499 10.021 23.4726 10.1575 23.4219L21.4364 19.3203C21.6312 19.2493 21.805 19.1304 21.9418 18.9745C22.0785 18.8186 22.1737 18.6308 22.2187 18.4284C22.2637 18.226 22.257 18.0155 22.1992 17.8164C22.1414 17.6173 22.0344 17.4359 21.888 17.2891L14.7098 10.1117ZM14.0591 20.675L11.3247 17.9406L12.3528 15.1117L16.888 19.6469L14.0591 20.675ZM9.76219 22.2375L10.8559 19.2367L12.7661 21.1469L9.76219 22.2375ZM18.1872 19.175L12.8247 13.8125L13.8403 11.0102L20.9833 18.1531L18.1872 19.175ZM18.4997 11.625C18.5114 11.2025 18.6137 10.7874 18.7997 10.4078C19.2138 9.58047 19.995 9.125 20.9997 9.125C21.5231 9.125 21.8591 8.94609 22.0661 8.56172C22.1751 8.34668 22.2377 8.11111 22.2497 7.87031C22.2503 7.70455 22.3168 7.54583 22.4344 7.42906C22.5521 7.31229 22.7113 7.24703 22.877 7.24766C23.0428 7.24828 23.2015 7.31472 23.3183 7.43237C23.4351 7.55002 23.5003 7.70924 23.4997 7.875C23.4997 8.87969 22.8341 10.375 20.9997 10.375C20.4763 10.375 20.1403 10.5539 19.9333 10.9383C19.8243 11.1533 19.7617 11.3889 19.7497 11.6297C19.7494 11.7118 19.7329 11.793 19.7012 11.8687C19.6695 11.9444 19.6232 12.0131 19.565 12.0709C19.5067 12.1288 19.4377 12.1745 19.3617 12.2057C19.2858 12.2368 19.2044 12.2527 19.1223 12.2523C19.0403 12.252 18.9591 12.2356 18.8833 12.2039C18.8076 12.1722 18.7389 12.1259 18.6811 12.0676C18.6233 12.0094 18.5775 11.9403 18.5464 11.8644C18.5152 11.7884 18.4994 11.7071 18.4997 11.625ZM16.6247 9.125V7.25C16.6247 7.08424 16.6905 6.92527 16.8078 6.80806C16.925 6.69085 17.0839 6.625 17.2497 6.625C17.4155 6.625 17.5744 6.69085 17.6916 6.80806C17.8088 6.92527 17.8747 7.08424 17.8747 7.25V9.125C17.8747 9.29076 17.8088 9.44973 17.6916 9.56694C17.5744 9.68415 17.4155 9.75 17.2497 9.75C17.0839 9.75 16.925 9.68415 16.8078 9.56694C16.6905 9.44973 16.6247 9.29076 16.6247 9.125ZM24.5669 15.5578C24.6249 15.6159 24.6709 15.6848 24.7023 15.7607C24.7337 15.8365 24.7498 15.9178 24.7498 15.9999C24.7497 16.082 24.7335 16.1632 24.7021 16.2391C24.6706 16.3149 24.6246 16.3838 24.5665 16.4418C24.5084 16.4998 24.4395 16.5458 24.3636 16.5772C24.2878 16.6086 24.2065 16.6247 24.1244 16.6247C24.0423 16.6246 23.9611 16.6084 23.8852 16.577C23.8094 16.5455 23.7405 16.4995 23.6825 16.4414L22.4325 15.1914C22.3152 15.0741 22.2493 14.9151 22.2493 14.7492C22.2493 14.5834 22.3152 14.4243 22.4325 14.307C22.5498 14.1898 22.7088 14.1239 22.8747 14.1239C23.0405 14.1239 23.1996 14.1898 23.3169 14.307L24.5669 15.5578ZM24.9473 12.218L23.0723 12.843C22.9151 12.8954 22.7434 12.8832 22.5952 12.8091C22.4469 12.7349 22.3341 12.6049 22.2817 12.4477C22.2293 12.2904 22.2415 12.1187 22.3156 11.9705C22.3898 11.8222 22.5198 11.7095 22.677 11.657L24.552 11.032C24.7093 10.9796 24.8809 10.9918 25.0292 11.0659C25.1775 11.1401 25.2902 11.2701 25.3427 11.4273C25.3951 11.5846 25.3829 11.7563 25.3087 11.9045C25.2346 12.0528 25.1046 12.1655 24.9473 12.218Z" fill="white"/>
</svg>
