<svg width="32" height="32" viewBox="0 0 32 32" fill="none" xmlns="http://www.w3.org/2000/svg">
<rect width="32" height="32" rx="16" fill="#525252"/>
<g clip-path="url(#clip0_743_1785)">
<path d="M13.5 12.25V21.6773C13.4999 21.7801 13.4745 21.8813 13.426 21.9719C13.3775 22.0626 13.3074 22.1398 13.2219 22.1969L12.3625 22.7695C12.2791 22.8251 12.1836 22.8598 12.0841 22.8708C11.9845 22.8817 11.8837 22.8686 11.7903 22.8324C11.6968 22.7963 11.6135 22.7382 11.5472 22.6631C11.4809 22.5879 11.4336 22.498 11.4094 22.4008L10.375 18.5" stroke="white" stroke-width="1.5" stroke-linecap="round" stroke-linejoin="round"/>
<path d="M22.875 21.625C22.875 21.744 22.841 21.8606 22.777 21.9609C22.713 22.0613 22.6216 22.1413 22.5137 22.1915C22.4058 22.2417 22.2858 22.2601 22.1678 22.2444C22.0498 22.2288 21.9387 22.1797 21.8477 22.1031C17.7539 18.6687 13.5 18.5 13.5 18.5H10.375C9.5462 18.5 8.75134 18.1707 8.16529 17.5847C7.57924 16.9986 7.25 16.2038 7.25 15.375C7.25 14.5462 7.57924 13.7513 8.16529 13.1653C8.75134 12.5792 9.5462 12.25 10.375 12.25H13.5C13.5 12.25 17.7539 12.0812 21.8477 8.64764C21.9387 8.57106 22.0497 8.52205 22.1676 8.50637C22.2855 8.49069 22.4055 8.50899 22.5134 8.55911C22.6212 8.60924 22.7126 8.68911 22.7766 8.78935C22.8407 8.88959 22.8748 9.00603 22.875 9.12499V21.625Z" stroke="white" stroke-width="1.5" stroke-linecap="round" stroke-linejoin="round"/>
</g>
<defs>
<clipPath id="clip0_743_1785">
<rect width="20" height="20" fill="white" transform="matrix(-1 0 0 1 26 6)"/>
</clipPath>
</defs>
</svg>
