<svg width="32" height="32" viewBox="0 0 32 32" fill="none" xmlns="http://www.w3.org/2000/svg">
<rect width="32" height="32" rx="16" fill="#525252"/>
<path d="M23.2932 14.1336C23.1297 14.161 22.9838 14.2521 22.8875 14.3871C22.7913 14.522 22.7525 14.6897 22.7799 14.8531C22.8434 15.2321 22.8752 15.6157 22.8752 16C22.8767 17.683 22.2581 19.3075 21.1377 20.5633C20.4406 19.5532 19.4605 18.7717 18.3205 18.3172C18.9329 17.8349 19.3797 17.1737 19.5989 16.4257C19.8181 15.6777 19.7987 14.8799 19.5435 14.1434C19.2883 13.4069 18.8099 12.7682 18.1748 12.3162C17.5398 11.8641 16.7797 11.6212 16.0002 11.6212C15.2207 11.6212 14.4606 11.8641 13.8256 12.3162C13.1905 12.7682 12.7121 13.4069 12.4569 14.1434C12.2017 14.8799 12.1823 15.6777 12.4015 16.4257C12.6207 17.1737 13.0675 17.8349 13.6799 18.3172C12.5399 18.7717 11.5598 19.5532 10.8627 20.5633C9.98358 19.5726 9.40932 18.3491 9.20899 17.0399C9.00865 15.7306 9.19077 14.3914 9.73344 13.1832C10.2761 11.975 11.1562 10.9492 12.268 10.2293C13.3797 9.50938 14.6757 9.12591 16.0002 9.12501C16.3845 9.12495 16.7681 9.15683 17.1471 9.22032C17.3098 9.246 17.4761 9.20638 17.6098 9.11008C17.7435 9.01378 17.8337 8.86859 17.8609 8.70609C17.8881 8.54359 17.85 8.37693 17.755 8.24236C17.6599 8.10779 17.5156 8.0162 17.3533 7.98751C15.656 7.70197 13.9119 7.96324 12.3727 8.73358C10.8336 9.50393 9.57908 10.7435 8.79035 12.2733C8.00161 13.8031 7.71946 15.544 7.98464 17.2446C8.24981 18.9452 9.04859 20.5175 10.2656 21.7346C11.4827 22.9516 13.055 23.7504 14.7556 24.0156C16.4562 24.2807 18.1971 23.9986 19.7269 23.2099C21.2567 22.4211 22.4963 21.1666 23.2666 19.6275C24.037 18.0883 24.2982 16.3442 24.0127 14.6469C23.9853 14.4834 23.8942 14.3375 23.7592 14.2412C23.6243 14.145 23.4567 14.1063 23.2932 14.1336ZM13.5002 15.375C13.5002 14.8806 13.6468 14.3972 13.9215 13.9861C14.1962 13.575 14.5867 13.2545 15.0435 13.0653C15.5003 12.8761 16.003 12.8266 16.4879 12.923C16.9729 13.0195 17.4183 13.2576 17.768 13.6072C18.1176 13.9569 18.3557 14.4023 18.4522 14.8873C18.5486 15.3722 18.4991 15.8749 18.3099 16.3317C18.1207 16.7885 17.8003 17.179 17.3891 17.4537C16.978 17.7284 16.4947 17.875 16.0002 17.875C15.3372 17.875 14.7013 17.6116 14.2324 17.1428C13.7636 16.6739 13.5002 16.0381 13.5002 15.375ZM11.7877 21.4297C12.2398 20.7226 12.8627 20.1406 13.5989 19.7376C14.3351 19.3345 15.1609 19.1232 16.0002 19.1232C16.8395 19.1232 17.6653 19.3345 18.4015 19.7376C19.1377 20.1406 19.7606 20.7226 20.2127 21.4297C19.0083 22.3664 17.526 22.875 16.0002 22.875C14.4744 22.875 12.9921 22.3664 11.7877 21.4297ZM24.5674 9.5672L22.0674 12.0672C22.0093 12.1253 21.9404 12.1714 21.8645 12.2029C21.7887 12.2343 21.7073 12.2505 21.6252 12.2505C21.5431 12.2505 21.4617 12.2343 21.3859 12.2029C21.31 12.1714 21.2411 12.1253 21.183 12.0672L19.933 10.8172C19.8749 10.7591 19.8289 10.6902 19.7975 10.6143C19.766 10.5384 19.7499 10.4571 19.7499 10.375C19.7499 10.2929 19.766 10.2116 19.7975 10.1357C19.8289 10.0598 19.8749 9.99089 19.933 9.93282C20.0503 9.81555 20.2094 9.74966 20.3752 9.74966C20.4573 9.74966 20.5386 9.76584 20.6145 9.79726C20.6904 9.82869 20.7593 9.87475 20.8174 9.93282L21.6252 10.7414L23.683 8.68282C23.7411 8.62475 23.81 8.57869 23.8859 8.54726C23.9618 8.51584 24.0431 8.49966 24.1252 8.49966C24.2073 8.49966 24.2886 8.51584 24.3645 8.54726C24.4404 8.57869 24.5093 8.62475 24.5674 8.68282C24.6255 8.74089 24.6715 8.80983 24.7029 8.8857C24.7344 8.96157 24.7506 9.04289 24.7506 9.12501C24.7506 9.20713 24.7344 9.28845 24.7029 9.36432C24.6715 9.44019 24.6255 9.50913 24.5674 9.5672Z" fill="white"/>
</svg>
