<svg width="20" height="20" viewBox="0 0 20 20" fill="none" xmlns="http://www.w3.org/2000/svg">
<path d="M9.16602 9H10.8327V17.3333H9.16602V9Z" fill="#FBBF24"/>
<rect x="7.5" y="11.6665" width="5" height="5.83333" fill="#FBBF24"/>
<path d="M11.6665 3.33317V12.1165C12.302 12.4834 12.7986 13.0497 13.0794 13.7276C13.3602 14.4056 13.4095 15.1572 13.2196 15.866C13.0297 16.5748 12.6112 17.2011 12.029 17.6478C11.4469 18.0945 10.7336 18.3366 9.99984 18.3366C9.26606 18.3366 8.55278 18.0945 7.97063 17.6478C7.38849 17.2011 6.97 16.5748 6.78009 15.866C6.59017 15.1572 6.63943 14.4056 6.92024 13.7276C7.20105 13.0497 7.6977 12.4834 8.33317 12.1165V3.33317C8.33317 2.89114 8.50877 2.46722 8.82133 2.15466C9.13389 1.8421 9.55781 1.6665 9.99984 1.6665C10.4419 1.6665 10.8658 1.8421 11.1783 2.15466C11.4909 2.46722 11.6665 2.89114 11.6665 3.33317Z" stroke="#525252" stroke-width="2" stroke-linecap="round" stroke-linejoin="round"/>
</svg>
