<svg width="32" height="32" viewBox="0 0 32 32" fill="none" xmlns="http://www.w3.org/2000/svg">
<rect width="32" height="32" rx="16" fill="#525252"/>
<path d="M24.75 14.125H23.8625L21.7227 10.3797C21.6133 10.1884 21.4554 10.0294 21.2648 9.91884C21.0742 9.80826 20.8578 9.75001 20.6375 9.75H11.3625C11.1422 9.75001 10.9258 9.80826 10.7352 9.91884C10.5446 10.0294 10.3867 10.1884 10.2773 10.3797L8.1375 14.125H7.25C7.08424 14.125 6.92527 14.1908 6.80806 14.3081C6.69085 14.4253 6.625 14.5842 6.625 14.75C6.625 14.9158 6.69085 15.0747 6.80806 15.1919C6.92527 15.3092 7.08424 15.375 7.25 15.375H7.875V21.625C7.875 21.9565 8.0067 22.2745 8.24112 22.5089C8.47554 22.7433 8.79348 22.875 9.125 22.875H11C11.3315 22.875 11.6495 22.7433 11.8839 22.5089C12.1183 22.2745 12.25 21.9565 12.25 21.625V20.375H19.75V21.625C19.75 21.9565 19.8817 22.2745 20.1161 22.5089C20.3505 22.7433 20.6685 22.875 21 22.875H22.875C23.2065 22.875 23.5245 22.7433 23.7589 22.5089C23.9933 22.2745 24.125 21.9565 24.125 21.625V15.375H24.75C24.9158 15.375 25.0747 15.3092 25.1919 15.1919C25.3092 15.0747 25.375 14.9158 25.375 14.75C25.375 14.5842 25.3092 14.4253 25.1919 14.3081C25.0747 14.1908 24.9158 14.125 24.75 14.125ZM11.3625 11H20.6375L22.4227 14.125H9.57734L11.3625 11ZM11 21.625H9.125V20.375H11V21.625ZM21 21.625V20.375H22.875V21.625H21ZM22.875 19.125H9.125V15.375H22.875V19.125ZM10.375 17.25C10.375 17.0842 10.4408 16.9253 10.5581 16.8081C10.6753 16.6908 10.8342 16.625 11 16.625H12.25C12.4158 16.625 12.5747 16.6908 12.6919 16.8081C12.8092 16.9253 12.875 17.0842 12.875 17.25C12.875 17.4158 12.8092 17.5747 12.6919 17.6919C12.5747 17.8092 12.4158 17.875 12.25 17.875H11C10.8342 17.875 10.6753 17.8092 10.5581 17.6919C10.4408 17.5747 10.375 17.4158 10.375 17.25ZM19.125 17.25C19.125 17.0842 19.1908 16.9253 19.3081 16.8081C19.4253 16.6908 19.5842 16.625 19.75 16.625H21C21.1658 16.625 21.3247 16.6908 21.4419 16.8081C21.5592 16.9253 21.625 17.0842 21.625 17.25C21.625 17.4158 21.5592 17.5747 21.4419 17.6919C21.3247 17.8092 21.1658 17.875 21 17.875H19.75C19.5842 17.875 19.4253 17.8092 19.3081 17.6919C19.1908 17.5747 19.125 17.4158 19.125 17.25ZM13.5 7.875C13.5 7.70924 13.5658 7.55027 13.6831 7.43306C13.8003 7.31585 13.9592 7.25 14.125 7.25H17.875C18.0408 7.25 18.1997 7.31585 18.3169 7.43306C18.4342 7.55027 18.5 7.70924 18.5 7.875C18.5 8.04076 18.4342 8.19973 18.3169 8.31694C18.1997 8.43415 18.0408 8.5 17.875 8.5H14.125C13.9592 8.5 13.8003 8.43415 13.6831 8.31694C13.5658 8.19973 13.5 8.04076 13.5 7.875Z" fill="white"/>
</svg>
