<svg width="101" height="101" viewBox="0 0 101 101" fill="none" xmlns="http://www.w3.org/2000/svg">
<rect width="101" height="101" fill="#FBBF24"/>
<circle cx="50.5" cy="50.5" r="44.5" fill="white"/>
<path d="M50 5C74.8529 5 95 25.3711 95 50.5C95 75.6291 74.8529 96 50 96C25.1471 96 5 75.6291 5 50.5C5 25.3711 25.1471 5 50 5ZM50.2047 16.9109C50.2047 16.9109 40.2264 15.9218 32.7916 23.637C25.3572 31.3522 25.3568 41.4413 25.3568 41.4413C25.3541 41.4771 24.8282 48.4398 32.2047 61.4216C39.6003 74.437 49.8134 83.7759 49.8134 83.7759C49.8134 83.7759 60.5351 73.8435 67.7742 61.4216C74.9949 49.0317 74.2738 41.4798 74.2699 41.4413C74.2699 41.4413 75.6394 31.3522 66.8351 23.637C58.0413 15.9308 50.223 16.9086 50.2047 16.9109Z" fill="#3C3C3C"/>
<rect x="38" y="32" width="6" height="6" rx="3" fill="#3C3C3C"/>
<rect x="54" y="32" width="6" height="6" rx="3" fill="#3C3C3C"/>
<path d="M50.5 8L56.9952 19.25H44.0048L50.5 8Z" fill="white"/>
</svg>
