<svg width="412" height="154" viewBox="0 0 412 154" fill="none" xmlns="http://www.w3.org/2000/svg">
<path d="M56.576 123H13.44C11.8187 123 10.624 122.659 9.856 121.976C9.17333 121.208 8.832 120.013 8.832 118.392V35.448C8.832 33.8267 9.17333 32.6747 9.856 31.992C10.624 31.224 11.8187 30.84 13.44 30.84H56.576C67.2427 30.84 75.136 32.9733 80.256 37.24C85.4613 41.5067 88.064 48.0773 88.064 56.952V96.888C88.064 105.763 85.4613 112.333 80.256 116.6C75.136 120.867 67.2427 123 56.576 123ZM37.888 55.288V98.808H53.12C55.168 98.808 56.6613 98.296 57.6 97.272C58.624 96.248 59.136 94.6693 59.136 92.536V61.432C59.136 59.2987 58.624 57.7627 57.6 56.824C56.6613 55.8 55.168 55.288 53.12 55.288H37.888ZM159.756 123H116.62C114.999 123 113.804 122.659 113.036 121.976C112.353 121.208 112.012 120.013 112.012 118.392V35.448C112.012 33.8267 112.353 32.6747 113.036 31.992C113.804 31.224 114.999 30.84 116.62 30.84H159.756C170.423 30.84 178.316 32.9733 183.436 37.24C188.641 41.5067 191.244 48.0773 191.244 56.952V96.888C191.244 105.763 188.641 112.333 183.436 116.6C178.316 120.867 170.423 123 159.756 123ZM141.068 55.288V98.808H156.3C158.348 98.808 159.841 98.296 160.78 97.272C161.804 96.248 162.316 94.6693 162.316 92.536V61.432C162.316 59.2987 161.804 57.7627 160.78 56.824C159.841 55.8 158.348 55.288 156.3 55.288H141.068ZM348.93 123H329.09C327.469 123 326.274 122.659 325.506 121.976C324.823 121.208 324.482 120.013 324.482 118.392V35.448C324.482 33.8267 324.823 32.6747 325.506 31.992C326.274 31.224 327.469 30.84 329.09 30.84H348.93C350.551 30.84 351.703 31.224 352.386 31.992C353.154 32.6747 353.538 33.8267 353.538 35.448V64.888H358.658L371.842 35.064C372.439 33.528 373.25 32.4613 374.274 31.864C375.298 31.1813 376.621 30.84 378.242 30.84H397.954C399.405 30.84 400.386 31.224 400.898 31.992C401.41 32.6747 401.367 33.6987 400.77 35.064L387.714 64.888C392.493 65.144 396.29 66.8507 399.106 70.008C402.007 73.08 403.458 77.176 403.458 82.296V118.392C403.458 120.013 403.074 121.208 402.306 121.976C401.623 122.659 400.471 123 398.85 123H379.138C377.517 123 376.322 122.659 375.554 121.976C374.871 121.208 374.53 120.013 374.53 118.392V93.432C374.53 92.0667 374.189 91 373.506 90.232C372.823 89.464 371.799 89.08 370.434 89.08H353.538V118.392C353.538 120.013 353.154 121.208 352.386 121.976C351.703 122.659 350.551 123 348.93 123Z" fill="white"/>
<path d="M256 29C280.853 29 301 49.3711 301 74.5C301 99.6291 280.853 120 256 120C231.147 120 211 99.6291 211 74.5C211 49.3711 231.147 29 256 29ZM256.205 40.9109C256.205 40.9109 246.226 39.9218 238.792 47.637C231.357 55.3522 231.357 65.4413 231.357 65.4413C231.354 65.4771 230.828 72.4398 238.205 85.4216C245.6 98.437 255.813 107.776 255.813 107.776C255.813 107.776 266.535 97.8435 273.774 85.4216C280.995 73.0317 280.274 65.4798 280.27 65.4413C280.27 65.4413 281.639 55.3522 272.835 47.637C264.041 39.9308 256.223 40.9086 256.205 40.9109Z" fill="#3C3C3C"/>
<path d="M56.576 123H13.44C11.8187 123 10.624 122.659 9.856 121.976C9.17333 121.208 8.832 120.013 8.832 118.392V35.448C8.832 33.8267 9.17333 32.6747 9.856 31.992C10.624 31.224 11.8187 30.84 13.44 30.84H56.576C67.2427 30.84 75.136 32.9733 80.256 37.24C85.4613 41.5067 88.064 48.0773 88.064 56.952V96.888C88.064 105.763 85.4613 112.333 80.256 116.6C75.136 120.867 67.2427 123 56.576 123ZM22.784 111.48H53.76C58.112 111.48 61.6533 111.053 64.384 110.2C67.1147 109.261 69.2053 108.024 70.656 106.488C72.1067 104.952 73.0453 103.117 73.472 100.984C73.984 98.8507 74.24 96.5467 74.24 94.072V60.152C74.24 57.6773 73.984 55.3733 73.472 53.24C72.96 51.0213 71.9787 49.144 70.528 47.608C69.0773 45.9867 66.9867 44.7067 64.256 43.768C61.6107 42.8293 58.112 42.36 53.76 42.36H22.784V111.48ZM53.76 43.64C57.7707 43.64 61.0133 44.0667 63.488 44.92C66.048 45.7733 68.0107 46.9253 69.376 48.376C70.7413 49.8267 71.68 51.576 72.192 53.624C72.704 55.672 72.96 57.848 72.96 60.152V94.072C72.96 96.376 72.704 98.552 72.192 100.6C71.7653 102.563 70.8693 104.269 69.504 105.72C68.1387 107.085 66.176 108.195 63.616 109.048C61.1413 109.816 57.856 110.2 53.76 110.2H24.064V43.64H53.76ZM37.888 55.288V98.808H53.12C55.168 98.808 56.6613 98.296 57.6 97.272C58.624 96.248 59.136 94.6693 59.136 92.536V61.432C59.136 59.2987 58.624 57.7627 57.6 56.824C56.6613 55.8 55.168 55.288 53.12 55.288H37.888ZM159.756 123H116.62C114.999 123 113.804 122.659 113.036 121.976C112.353 121.208 112.012 120.013 112.012 118.392V35.448C112.012 33.8267 112.353 32.6747 113.036 31.992C113.804 31.224 114.999 30.84 116.62 30.84H159.756C170.423 30.84 178.316 32.9733 183.436 37.24C188.641 41.5067 191.244 48.0773 191.244 56.952V96.888C191.244 105.763 188.641 112.333 183.436 116.6C178.316 120.867 170.423 123 159.756 123ZM125.964 111.48H156.94C161.292 111.48 164.833 111.053 167.564 110.2C170.295 109.261 172.385 108.024 173.836 106.488C175.287 104.952 176.225 103.117 176.652 100.984C177.164 98.8507 177.42 96.5467 177.42 94.072V60.152C177.42 57.6773 177.164 55.3733 176.652 53.24C176.14 51.0213 175.159 49.144 173.708 47.608C172.257 45.9867 170.167 44.7067 167.436 43.768C164.791 42.8293 161.292 42.36 156.94 42.36H125.964V111.48ZM156.94 43.64C160.951 43.64 164.193 44.0667 166.668 44.92C169.228 45.7733 171.191 46.9253 172.556 48.376C173.921 49.8267 174.86 51.576 175.372 53.624C175.884 55.672 176.14 57.848 176.14 60.152V94.072C176.14 96.376 175.884 98.552 175.372 100.6C174.945 102.563 174.049 104.269 172.684 105.72C171.319 107.085 169.356 108.195 166.796 109.048C164.321 109.816 161.036 110.2 156.94 110.2H127.244V43.64H156.94ZM141.068 55.288V98.808H156.3C158.348 98.808 159.841 98.296 160.78 97.272C161.804 96.248 162.316 94.6693 162.316 92.536V61.432C162.316 59.2987 161.804 57.7627 160.78 56.824C159.841 55.8 158.348 55.288 156.3 55.288H141.068Z" fill="#3C3C3C"/>
<path d="M339.714 111.48V77.688H374.146C378.839 77.688 382.381 78.5413 384.77 80.248C387.159 81.9547 388.354 84.856 388.354 88.952V111.48H389.634V88.952C389.634 84.5147 388.354 81.3147 385.794 79.352C383.234 77.3893 379.351 76.408 374.146 76.408H368.898L383.618 42.36H382.21L367.49 76.408H339.714V42.36H338.434V111.48H339.714ZM348.93 123H329.09C327.469 123 326.274 122.659 325.506 121.976C324.823 121.208 324.482 120.013 324.482 118.392V35.448C324.482 33.8267 324.823 32.6747 325.506 31.992C326.274 31.224 327.469 30.84 329.09 30.84H348.93C350.551 30.84 351.703 31.224 352.386 31.992C353.154 32.6747 353.538 33.8267 353.538 35.448V64.888H358.658L371.842 35.064C372.439 33.528 373.25 32.4613 374.274 31.864C375.298 31.1813 376.621 30.84 378.242 30.84H397.954C399.405 30.84 400.386 31.224 400.898 31.992C401.41 32.6747 401.367 33.6987 400.77 35.064L387.714 64.888C392.493 65.144 396.29 66.8507 399.106 70.008C402.007 73.08 403.458 77.176 403.458 82.296V118.392C403.458 120.013 403.074 121.208 402.306 121.976C401.623 122.659 400.471 123 398.85 123H379.138C377.517 123 376.322 122.659 375.554 121.976C374.871 121.208 374.53 120.013 374.53 118.392V93.432C374.53 92.0667 374.189 91 373.506 90.232C372.823 89.464 371.799 89.08 370.434 89.08H353.538V118.392C353.538 120.013 353.154 121.208 352.386 121.976C351.703 122.659 350.551 123 348.93 123Z" fill="#FBBF24"/>
<rect x="244" y="56" width="6" height="6" rx="3" fill="#3C3C3C"/>
<rect x="260" y="56" width="6" height="6" rx="3" fill="#3C3C3C"/>
<path d="M256.5 32L262.995 43.25H250.005L256.5 32Z" fill="white"/>
<ellipse cx="256" cy="74.5" rx="45" ry="45.5" fill="white"/>
<path d="M256 29C280.853 29 301 49.3711 301 74.5C301 99.6291 280.853 120 256 120C231.147 120 211 99.6291 211 74.5C211 49.3711 231.147 29 256 29ZM256.205 40.9109C256.205 40.9109 246.226 39.9218 238.792 47.637C231.357 55.3522 231.357 65.4413 231.357 65.4413C231.354 65.4771 230.828 72.4398 238.205 85.4216C245.6 98.437 255.813 107.776 255.813 107.776C255.813 107.776 266.535 97.8435 273.774 85.4216C280.995 73.0317 280.274 65.4798 280.27 65.4413C280.27 65.4413 281.639 55.3522 272.835 47.637C264.041 39.9308 256.223 40.9086 256.205 40.9109Z" fill="#3C3C3C"/>
<rect x="244" y="56" width="6" height="6" rx="3" fill="#3C3C3C"/>
<rect x="260" y="56" width="6" height="6" rx="3" fill="#3C3C3C"/>
<path d="M256.5 32L262.995 43.25H250.005L256.5 32Z" fill="white"/>
</svg>
