<svg width="90" height="91" viewBox="0 0 90 91" fill="none" xmlns="http://www.w3.org/2000/svg">
<circle cx="45.5" cy="45.5" r="44.5" fill="white"/>
<path d="M45 0C69.8529 0 90 20.3711 90 45.5C90 70.6291 69.8529 91 45 91C20.1471 91 0 70.6291 0 45.5C0 20.3711 20.1471 0 45 0ZM45.2047 11.9109C45.2047 11.9109 35.2264 10.9218 27.7916 18.637C20.3572 26.3522 20.3568 36.4413 20.3568 36.4413C20.3541 36.4771 19.8282 43.4398 27.2047 56.4216C34.6003 69.437 44.8134 78.7759 44.8134 78.7759C44.8134 78.7759 55.5351 68.8435 62.7742 56.4216C69.9949 44.0317 69.2738 36.4798 69.2699 36.4413C69.2699 36.4413 70.6394 26.3522 61.8351 18.637C53.0413 10.9308 45.223 11.9086 45.2047 11.9109Z" fill="#3C3C3C"/>
<rect x="33" y="27" width="6" height="6" rx="3" fill="#3C3C3C"/>
<rect x="49" y="27" width="6" height="6" rx="3" fill="#3C3C3C"/>
<path d="M45.5 3L51.9952 14.25H39.0048L45.5 3Z" fill="white"/>
</svg>
